<?xml version="1.0" encoding="UTF-8"?>
<svg width="225px" height="79px" viewBox="0 0 225 79" version="1.1" xmlns="http://www.w3.org/2000/svg" xmlns:xlink="http://www.w3.org/1999/xlink">
    <!-- Generator: Sketch 52.2 (67145) - http://www.bohemiancoding.com/sketch -->
    <title>编组</title>
    <desc>Created with Sketch.</desc>
    <g id="页面1" stroke="none" stroke-width="1" fill="none" fill-rule="evenodd">
        <g id="邮箱设置新密码备份" transform="translate(-79.000000, -49.000000)" fill="#738BFB">
            <g id="编组" transform="translate(79.000000, 49.000000)">
                <path d="M149.9326,55.143 L146.8186,55.143 L146.8186,31.62 L149.9326,31.62 L149.9326,32.82 C150.7916,32.42 151.7196,32.15 152.6066,31.97 C153.5596,31.78 154.5296,31.67 155.5006,31.66 L155.5266,31.66 L166.6956,31.66 L166.6956,52.918 C166.6956,54.181 165.6706,55.205 164.4076,55.205 L152.7556,55.205 L152.7556,52.091 L155.5786,52.091 L155.5786,46.467 C155.5786,45.969 155.1756,45.566 154.6776,45.566 C153.6296,45.566 151.9096,45.566 150.8536,45.566 C150.3456,45.566 149.9326,45.978 149.9326,46.487 L149.9326,55.143 Z M162.7266,52.091 C162.9536,52.091 163.1706,52.001 163.3306,51.841 C163.4916,51.681 163.5816,51.464 163.5816,51.237 L163.5816,46.482 C163.5816,45.976 163.1706,45.566 162.6646,45.566 C161.7586,45.566 160.3846,45.566 159.5136,45.566 C159.2966,45.566 159.0876,45.652 158.9336,45.806 C158.7796,45.96 158.6926,46.169 158.6926,46.386 L158.6926,51.145 C158.6926,51.396 158.7926,51.637 158.9696,51.814 C159.1476,51.992 159.3886,52.091 159.6386,52.091 C160.5336,52.091 161.8636,52.091 162.7266,52.091 Z M155.5786,34.77 L155.5126,34.77 C153.7906,34.8 151.9536,35.05 150.5296,36.02 C150.3086,36.17 150.1006,36.35 149.9326,36.56 L149.9326,41.625 C149.9326,41.844 150.0196,42.055 150.1746,42.21 C150.3296,42.365 150.5396,42.452 150.7586,42.452 C151.7966,42.452 153.5716,42.452 154.6536,42.452 C155.1646,42.452 155.5786,42.037 155.5786,41.526 L155.5786,34.77 Z M158.6926,34.76 L158.6926,41.633 C158.6926,42.085 159.0596,42.452 159.5116,42.452 C160.4086,42.452 161.8426,42.452 162.7466,42.452 C162.9676,42.452 163.1796,42.364 163.3366,42.207 C163.4936,42.05 163.5816,41.838 163.5816,41.617 C163.5816,40.165 163.5816,37.189 163.5816,35.69 C163.5816,35.18 163.1736,34.77 162.6696,34.77 C161.3446,34.77 160.0186,34.76 158.6926,34.76 Z" id="Fill-22"></path>
                <path d="M163.0896,57.054 C165.0146,57.071 166.8526,57.949 168.3236,59.286 C168.4996,59.445 168.7116,59.64 168.7116,59.64 L166.6296,61.956 C165.8596,61.264 165.0566,60.543 164.0296,60.285 C162.6876,59.949 161.2496,60.509 159.9706,60.978 C157.0776,62.038 153.6986,61.603 151.0946,59.82 C150.9966,59.753 150.8996,59.684 150.8056,59.611 L152.7276,57.16 C153.1086,57.459 153.5586,57.685 154.0166,57.88 C155.6916,58.598 157.6446,58.602 159.3226,57.883 C160.5136,57.38 161.7866,57.05 163.0896,57.054 Z" id="Fill-23"></path>
                <path d="M146.9406,56.677 C146.9406,56.677 149.7876,58.009 149.7876,58.009 C148.4756,60.83 144.9386,62.372 141.5416,61.858 L142.0116,58.75 C143.1086,58.916 144.2726,58.835 145.2426,58.325 C145.9546,57.951 146.5836,57.381 146.9426,56.671 C146.9436,56.669 146.9406,56.675 146.9406,56.677 Z" id="Fill-24"></path>
                <path d="M174.6426,37.438 C175.5886,37 176.6346,36.78 177.6486,36.76 L180.0086,36.76 C180.9416,36.76 181.6966,37.516 181.6966,38.448 L181.6966,53.458 L176.3876,53.458 L176.3876,50.344 L178.5826,50.344 L178.5826,39.874 L177.6746,39.874 L177.6576,39.875 C176.4306,39.928 175.1266,40.396 174.6426,41.508 L174.6426,53.463 L171.5286,53.463 L171.5286,36.53 L174.6426,36.53 L174.6426,37.438 Z" id="Fill-25"></path>
                <polygon id="Fill-26" points="171.5026 26.66 181.3188 26.66 181.3188 23.546 171.5026 23.546"></polygon>
                <polygon id="Fill-27" points="172.2946 30.91 180.5282 30.91 180.5282 27.796 172.2946 27.796"></polygon>
                <path d="M212.4656,42.656 C212.4656,42.397 212.2556,42.187 211.9966,42.187 L204.3236,42.187 L204.2076,42.182 C203.8556,42.142 203.7996,42.104 203.6526,42.034 C203.1336,41.784 202.8006,41.225 202.7786,40.641 L202.7786,25.08 L200.5436,22.84 L202.7286,20.66 C203.6246,21.55 204.5206,22.45 205.4156,23.35 C205.4826,23.42 205.5016,23.43 205.5606,23.51 C205.7586,23.78 205.8566,24.1 205.8686,24.44 L205.8686,24.58 L211.8546,24.58 C212.0166,24.58 212.1726,24.52 212.2866,24.4 C212.4016,24.29 212.4656,24.13 212.4656,23.97 C212.4656,22.87 212.4656,20.69 212.4656,20.69 L215.5566,20.69 L215.5566,23.81 C215.5566,24.24 215.9006,24.58 216.3246,24.58 C218.3136,24.58 223.4726,24.58 223.4726,24.58 L223.4726,27.67 L216.1326,27.67 C215.8146,27.67 215.5566,27.93 215.5566,28.25 C215.5566,28.44 215.5566,28.65 215.5566,28.84 C215.5566,28.98 215.6116,29.11 215.7096,29.21 C215.8076,29.31 215.9416,29.36 216.0806,29.36 C217.8476,29.36 223.4726,29.36 223.4726,29.36 L223.4726,32.45 L216.0596,32.45 C215.7816,32.45 215.5566,32.68 215.5566,32.96 C215.5566,33.2 215.5566,33.48 215.5566,33.71 C215.5566,33.83 215.6026,33.94 215.6846,34.02 C215.7666,34.1 215.8776,34.15 215.9936,34.15 L223.4726,34.15 L223.4726,37.239 L216.1336,37.239 C215.9806,37.239 215.8336,37.299 215.7256,37.408 C215.6166,37.516 215.5566,37.663 215.5566,37.816 L215.5566,38.592 C215.5566,38.871 215.7816,39.096 216.0606,39.096 C217.8156,39.096 223.5466,39.096 223.5466,39.096 L223.5466,42.187 L216.1666,42.187 C216.0046,42.187 215.8496,42.251 215.7356,42.365 C215.6206,42.48 215.5566,42.635 215.5566,42.797 C215.5566,43.283 215.5566,43.88 215.5566,43.88 L223.4726,43.88 L223.4726,46.97 L215.5566,46.97 L215.5566,49.831 L211.3956,53.992 L209.2106,51.807 L212.4656,48.551 L212.4656,46.97 L209.4846,46.97 C208.7456,46.97 208.0376,47.264 207.5156,47.786 C205.7016,49.599 201.4946,53.806 201.4946,53.806 L199.3096,51.621 C199.3096,51.621 204.0526,46.879 206.1136,44.818 C206.7136,44.217 207.5276,43.88 208.3766,43.88 L212.4656,43.88 L212.4656,42.656 Z M223.1746,50.349 L224.4656,51.64 L222.2806,53.825 C220.7616,52.306 219.9476,51.491 218.4276,49.972 L220.6126,47.787 C221.4666,48.641 222.3206,49.495 223.1746,50.349 Z M205.8686,39.096 L211.9186,39.096 C212.0636,39.096 212.2026,39.039 212.3056,38.936 C212.4086,38.833 212.4656,38.694 212.4656,38.549 C212.4656,38.301 212.4656,38.01 212.4656,37.765 C212.4656,37.474 212.2306,37.239 211.9396,37.239 C210.3766,37.239 205.8686,37.239 205.8686,37.239 L205.8686,39.096 Z M211.9086,34.15 C212.2166,34.15 212.4656,33.9 212.4656,33.59 C212.4656,33.38 212.4656,33.13 212.4656,32.93 C212.4656,32.67 212.2556,32.45 211.9956,32.45 C210.4866,32.45 205.8686,32.45 205.8686,32.45 L205.8686,34.15 L211.9086,34.15 Z M211.9226,29.36 C212.0666,29.36 212.2056,29.31 212.3066,29.21 C212.4086,29.1 212.4656,28.97 212.4656,28.82 C212.4656,28.59 212.4656,28.33 212.4656,28.12 C212.4656,28 212.4196,27.89 212.3356,27.8 C212.2526,27.72 212.1386,27.67 212.0206,27.67 C210.5396,27.67 205.8686,27.67 205.8686,27.67 L205.8686,29.36 L211.9226,29.36 Z" id="Fill-28"></path>
                <polygon id="Fill-29" points="174.7336 26.66 178.0879 26.66 178.0879 21.7309 174.7336 21.7309"></polygon>
                <polygon id="Fill-30" points="172.2946 35.16 180.5282 35.16 180.5282 32.046 172.2946 32.046"></polygon>
                <path d="M183.6406,34.05 L183.6406,24.84 L182.7186,24.84 L182.7186,21.73 L195.4436,21.73 L195.4436,29.97 C195.4436,30.48 195.8546,30.89 196.3626,30.89 C197.1856,30.89 198.2636,30.89 198.2636,30.89 L198.2636,34 L193.7306,34 C193.3586,34 193.0026,33.86 192.7396,33.59 C192.4766,33.33 192.3296,32.97 192.3296,32.6 C192.3296,30.69 192.3296,27.31 192.3296,25.72 C192.3296,25.24 191.9386,24.84 191.4566,24.84 L187.6596,24.84 C187.1596,24.84 186.7546,25.25 186.7546,25.75 C186.7546,28.07 186.7546,34.05 186.7546,34.05 L183.6406,34.05 Z" id="Fill-31"></path>
                <path d="M186.6846,44.015 L183.5706,44.015 L183.5706,37.709 C183.5706,37.381 183.7006,37.066 183.9326,36.835 C184.1646,36.6 184.4786,36.47 184.8066,36.47 L195.8176,36.47 C196.4886,36.47 197.0406,36.999 197.0716,37.669 C197.0776,37.784 197.0826,37.891 197.0866,37.982 C197.1326,39.371 196.9486,40.77 196.6686,42.141 C196.1626,44.623 195.2016,47.007 193.8366,49.136 C193.5486,49.577 193.6086,50.16 193.9816,50.532 C195.2436,51.798 197.9146,54.469 197.9146,54.469 L195.7126,56.671 C195.7126,56.671 193.3376,54.296 192.0836,53.042 C191.6706,52.629 191.0046,52.615 190.5746,53.012 C189.7566,53.761 188.8666,54.441 187.9116,55.04 C186.9616,55.636 185.9606,56.15 184.9356,56.591 L183.7046,53.731 C185.4706,52.971 187.1176,51.917 188.5426,50.622 C188.6946,50.482 188.7836,50.285 188.7876,50.078 C188.7916,49.871 188.7106,49.672 188.5646,49.525 C188.0936,49.052 187.4896,48.448 187.4896,48.448 L189.6916,46.246 C189.6916,46.246 190.1306,46.685 190.5196,47.074 C190.6656,47.22 190.8696,47.29 191.0746,47.265 C191.2786,47.239 191.4606,47.121 191.5666,46.944 C191.7816,46.58 191.9836,46.207 192.1696,45.825 C193.1126,43.887 193.6896,41.774 193.9046,39.626 L193.9076,39.587 L186.6846,39.587 L186.6846,44.015 Z" id="Fill-32"></path>
                <polygon id="Fill-33" points="139.4496 26.13 130.8036 26.13 131.6576 23.01 139.4496 23.01"></polygon>
                <path d="M134.3596,37.437 C134.7696,37.327 135.0546,36.956 135.0546,36.53 C135.0546,35.89 135.0546,35.05 135.0546,35.05 C135.0546,34.92 135.0016,34.79 134.9076,34.7 C134.8136,34.61 134.6866,34.55 134.5536,34.55 L127.4296,34.55 L127.4296,31.44 L134.5006,31.44 C134.6476,31.44 134.7886,31.38 134.8926,31.28 C134.9956,31.17 135.0546,31.03 135.0546,30.89 L135.0546,30.11 L138.1686,30.11 L138.1686,53.648 C138.1026,54.235 137.8156,54.797 137.2866,55.051 C137.0046,55.187 136.9166,55.171 136.6116,55.205 L132.8226,55.205 L132.8226,52.091 L135.0546,52.091 L135.0546,48.089 C135.0546,47.89 134.9616,47.703 134.8046,47.582 C134.6466,47.462 134.4426,47.421 134.2506,47.472 C132.0386,48.065 125.8966,49.711 123.9366,50.236 C123.5776,50.332 123.3276,50.658 123.3276,51.029 L123.3276,53.463 L120.2136,53.463 L120.2136,36.968 L123.3276,36.968 L123.3276,39.371 C123.3276,39.614 123.4416,39.844 123.6346,39.993 C123.8286,40.141 124.0796,40.191 124.3156,40.128 C126.6316,39.508 132.3676,37.97 134.3596,37.437 Z M124.0346,43.427 C123.6176,43.539 123.3276,43.917 123.3276,44.348 L123.3276,46.362 C123.3276,46.556 123.4176,46.739 123.5716,46.857 C123.7256,46.975 123.9256,47.015 124.1126,46.965 C126.2876,46.382 132.3636,44.754 134.3886,44.211 C134.7816,44.106 135.0546,43.75 135.0546,43.343 L135.0546,41.361 C135.0546,41.15 134.9556,40.95 134.7886,40.821 C134.6206,40.693 134.4016,40.649 134.1976,40.704 C131.9786,41.299 126.0766,42.88 124.0346,43.427 Z" id="Fill-34"></path>
                <path d="M125.0926,23.01 C125.8096,23.01 126.4476,22.56 126.6826,21.88 C126.8756,21.32 127.0676,20.77 127.0676,20.77 C128.0476,21.11 129.0286,21.45 130.0096,21.79 L127.8056,28.14 C127.5186,29.05 127.0776,29.89 126.5816,30.69 C125.0376,33.19 122.6436,35.18 119.8336,36.06 L118.3126,36.53 L117.3946,33.55 C118.2976,33.28 119.2146,33.04 120.0516,32.64 C122.1746,31.63 123.8316,29.7 124.7146,27.53 C124.7806,27.37 124.8506,27.16 124.8506,27.16 C124.8506,27.16 124.8506,27.16 124.8506,27.16 C124.9326,26.92 124.8956,26.66 124.7486,26.45 C124.6026,26.25 124.3656,26.13 124.1126,26.13 C122.0886,26.13 117.9716,26.13 117.9716,26.13 L117.9716,23.01 L125.0926,23.01 Z" id="Fill-35"></path>
                <path d="M141.5416,33.57 C143.7876,32.56 145.6316,30.61 146.7186,28.34 C146.8036,28.17 146.8986,27.94 146.8986,27.94 L147.2606,27.06 L149.8086,20.73 L152.6906,21.96 L152.2636,23.01 L161.0966,23.01 L161.2066,23.02 C161.3046,23.03 161.3296,23.03 161.4256,23.05 C162.2436,23.22 162.8316,24.14 162.5966,24.99 C162.5706,25.08 162.5586,25.1 162.5226,25.19 L160.0436,30.85 L157.1916,29.6 L158.7146,26.13 L151.0146,26.13 C150.8646,26.49 150.7136,26.85 150.5626,27.21 L149.7856,29.13 L149.7786,29.12 C149.7356,29.23 149.7316,29.24 149.7096,29.29 C148.3436,32.45 145.7986,35.12 142.6886,36.47 L141.5416,33.57 Z" id="Fill-36"></path>
                <polygon id="Fill-37" points="111.4266 22.94 112.9106 21.96 112.9106 22.67 111.9416 23.22 112.9106 23.8 112.9106 24.48 111.4266 23.51 110.3226 23.51 110.3226 22.94"></polygon>
                <path d="M111.6166,24.95 C111.8236,24.95 112.0116,24.99 112.1796,25.06 C112.3476,25.13 112.4906,25.22 112.6096,25.35 C112.7276,25.47 112.8186,25.62 112.8816,25.79 C112.9456,25.96 112.9766,26.15 112.9766,26.35 C112.9766,26.55 112.9456,26.74 112.8816,26.91 C112.8186,27.08 112.7276,27.23 112.6096,27.35 C112.4906,27.48 112.3476,27.57 112.1796,27.64 C112.0116,27.71 111.8236,27.75 111.6166,27.75 C111.4096,27.75 111.2216,27.71 111.0536,27.64 C110.8856,27.57 110.7416,27.48 110.6236,27.35 C110.5056,27.23 110.4146,27.08 110.3516,26.91 C110.2876,26.74 110.2566,26.55 110.2566,26.35 C110.2566,26.15 110.2876,25.96 110.3516,25.79 C110.4146,25.62 110.5056,25.47 110.6236,25.35 C110.7416,25.22 110.8856,25.13 111.0536,25.06 C111.2216,24.99 111.4096,24.95 111.6166,24.95 Z M111.6166,25.54 C111.4946,25.54 111.3836,25.56 111.2816,25.6 C111.1806,25.64 111.0926,25.69 111.0186,25.76 C110.9446,25.83 110.8866,25.92 110.8446,26.02 C110.8036,26.12 110.7826,26.23 110.7826,26.35 C110.7826,26.47 110.8036,26.58 110.8446,26.68 C110.8866,26.78 110.9446,26.86 111.0186,26.93 C111.0926,27 111.1806,27.06 111.2816,27.1 C111.3836,27.13 111.4946,27.15 111.6166,27.15 C111.7356,27.15 111.8466,27.13 111.9496,27.1 C112.0516,27.06 112.1396,27 112.2146,26.93 C112.2886,26.86 112.3466,26.78 112.3876,26.68 C112.4296,26.58 112.4506,26.47 112.4506,26.35 C112.4506,26.23 112.4296,26.12 112.3876,26.02 C112.3466,25.92 112.2886,25.83 112.2146,25.76 C112.1396,25.69 112.0516,25.64 111.9496,25.6 C111.8466,25.56 111.7356,25.54 111.6166,25.54 Z" id="Fill-38"></path>
                <polygon id="Fill-39" points="111.4266 29.19 112.9106 28.22 112.9106 28.93 111.9416 29.48 112.9106 30.06 112.9106 30.73 111.4266 29.76 110.3226 29.76 110.3226 29.19"></polygon>
                <polygon id="Fill-40" points="112.9106 31.37 112.9106 33.12 112.3846 33.12 112.3846 31.94 111.9016 31.94 111.9016 33.06 111.3756 33.06 111.3756 31.94 110.8486 31.94 110.8486 33.19 110.3226 33.19 110.3226 31.37"></polygon>
                <polygon id="Fill-41" points="112.9106 34.09 112.9106 35.85 112.3846 35.85 112.3846 34.66 111.9016 34.66 111.9016 35.78 111.3756 35.78 111.3756 34.66 110.8486 34.66 110.8486 35.91 110.3226 35.91 110.3226 34.09"></polygon>
                <path d="M112.9106,38.295 L112.9106,39.15 C112.9106,39.358 112.8876,39.554 112.8416,39.741 C112.7956,39.927 112.7206,40.09 112.6166,40.229 C112.5126,40.368 112.3786,40.478 112.2126,40.56 C112.0466,40.642 111.8456,40.683 111.6096,40.683 C111.3996,40.683 111.2146,40.643 111.0556,40.564 C110.8956,40.484 110.7616,40.378 110.6526,40.244 C110.5446,40.11 110.4626,39.955 110.4066,39.779 C110.3506,39.604 110.3226,39.42 110.3226,39.227 L110.3226,38.295 L112.9106,38.295 Z M110.8486,38.865 L110.8486,39.161 C110.8486,39.293 110.8626,39.416 110.8886,39.529 C110.9156,39.642 110.9606,39.74 111.0226,39.823 C111.0846,39.906 111.1666,39.971 111.2676,40.019 C111.3686,40.066 111.4926,40.09 111.6386,40.09 C111.7656,40.09 111.8756,40.066 111.9696,40.019 C112.0636,39.971 112.1406,39.907 112.2016,39.827 C112.2626,39.746 112.3086,39.652 112.3386,39.544 C112.3696,39.435 112.3846,39.321 112.3846,39.202 L112.3846,38.865 L110.8486,38.865 Z" id="Fill-42"></path>
                <polygon id="Fill-43" points="112.9106 41.513 112.9106 43.271 112.3846 43.271 112.3846 42.083 111.9016 42.083 111.9016 43.206 111.3756 43.206 111.3756 42.083 110.8486 42.083 110.8486 43.337 110.3226 43.337 110.3226 41.513"></polygon>
                <path d="M112.2786,45.494 C112.3366,45.448 112.3806,45.385 112.4086,45.306 C112.4366,45.227 112.4506,45.152 112.4506,45.081 C112.4506,45.04 112.4456,44.997 112.4356,44.953 C112.4256,44.909 112.4106,44.868 112.3896,44.829 C112.3696,44.79 112.3416,44.758 112.3076,44.734 C112.2736,44.71 112.2316,44.697 112.1836,44.697 C112.1056,44.697 112.0456,44.727 112.0046,44.785 C111.9626,44.844 111.9276,44.917 111.8986,45.006 C111.8686,45.095 111.8396,45.191 111.8106,45.293 C111.7816,45.396 111.7396,45.491 111.6856,45.58 C111.6326,45.669 111.5606,45.743 111.4706,45.802 C111.3806,45.86 111.2596,45.889 111.1086,45.889 C110.9646,45.889 110.8386,45.863 110.7316,45.809 C110.6246,45.755 110.5356,45.683 110.4646,45.591 C110.3936,45.5 110.3416,45.394 110.3076,45.273 C110.2736,45.153 110.2566,45.025 110.2566,44.891 C110.2566,44.723 110.2816,44.567 110.3336,44.423 C110.3846,44.279 110.4676,44.145 110.5816,44.021 L111.0276,44.427 C110.9496,44.485 110.8896,44.559 110.8466,44.648 C110.8046,44.737 110.7826,44.829 110.7826,44.924 C110.7826,44.97 110.7886,45.017 110.7996,45.065 C110.8106,45.112 110.8266,45.155 110.8486,45.193 C110.8706,45.231 110.8986,45.261 110.9326,45.284 C110.9666,45.307 111.0076,45.319 111.0536,45.319 C111.1316,45.319 111.1926,45.289 111.2386,45.229 C111.2836,45.17 111.3216,45.095 111.3536,45.005 C111.3846,44.914 111.4166,44.817 111.4486,44.712 C111.4796,44.607 111.5226,44.51 111.5766,44.419 C111.6296,44.329 111.7006,44.254 111.7886,44.195 C111.8766,44.135 111.9916,44.105 112.1356,44.105 C112.2746,44.105 112.3966,44.132 112.5016,44.187 C112.6066,44.242 112.6936,44.315 112.7646,44.407 C112.8356,44.498 112.8886,44.604 112.9236,44.723 C112.9596,44.842 112.9766,44.966 112.9766,45.092 C112.9766,45.239 112.9556,45.38 112.9146,45.516 C112.8736,45.653 112.8036,45.776 112.7066,45.886 L112.2786,45.494 Z" id="Fill-44"></path>
                <polygon id="Fill-45" points="110.3226 47.297 112.9114 47.297 112.9114 46.7266 110.3226 46.7266"></polygon>
                <path d="M110.5046,50.581 C110.4176,50.413 110.3536,50.237 110.3146,50.054 C110.2756,49.871 110.2566,49.685 110.2566,49.495 C110.2566,49.292 110.2876,49.106 110.3516,48.935 C110.4146,48.765 110.5056,48.617 110.6236,48.493 C110.7416,48.369 110.8856,48.272 111.0536,48.202 C111.2216,48.133 111.4096,48.098 111.6166,48.098 C111.8236,48.098 112.0116,48.133 112.1796,48.202 C112.3476,48.272 112.4906,48.369 112.6096,48.493 C112.7276,48.617 112.8186,48.765 112.8816,48.935 C112.9456,49.106 112.9766,49.292 112.9766,49.495 C112.9766,49.702 112.9516,49.893 112.9016,50.067 C112.8516,50.241 112.7656,50.394 112.6436,50.526 L112.2056,50.124 C112.2856,50.046 112.3466,49.958 112.3876,49.86 C112.4296,49.763 112.4506,49.641 112.4506,49.495 C112.4506,49.373 112.4296,49.263 112.3876,49.164 C112.3466,49.065 112.2886,48.98 112.2146,48.91 C112.1396,48.839 112.0516,48.785 111.9496,48.747 C111.8466,48.709 111.7356,48.69 111.6166,48.69 C111.4946,48.69 111.3836,48.709 111.2816,48.747 C111.1806,48.785 111.0926,48.839 111.0186,48.91 C110.9446,48.98 110.8866,49.065 110.8446,49.164 C110.8036,49.263 110.7826,49.373 110.7826,49.495 C110.7826,49.619 110.7966,49.726 110.8246,49.817 C110.8526,49.907 110.8816,49.979 110.9106,50.032 L111.3316,50.032 L111.3316,49.568 L111.8576,49.568 L111.8576,50.581 L110.5046,50.581 Z" id="Fill-46"></path>
                <polygon id="Fill-47" points="112.9106 51.502 112.9106 52.277 111.1116 53.378 111.1116 53.385 112.9106 53.385 112.9106 53.956 110.3226 53.956 110.3226 53.21 112.1646 52.08 112.1646 52.073 110.3226 52.073 110.3226 51.502"></polygon>
                <path d="M108.6106,22.3 L108.6106,23.27 C108.6106,23.38 108.6026,23.49 108.5876,23.6 C108.5716,23.72 108.5396,23.82 108.4916,23.91 C108.4446,24 108.3786,24.07 108.2926,24.13 C108.2076,24.19 108.0946,24.21 107.9526,24.21 C107.8066,24.21 107.6856,24.17 107.5886,24.09 C107.4926,24.01 107.4236,23.9 107.3826,23.77 L107.3746,23.77 C107.3626,23.85 107.3386,23.93 107.3036,24 C107.2686,24.07 107.2236,24.13 107.1686,24.18 C107.1136,24.23 107.0496,24.27 106.9766,24.29 C106.9036,24.32 106.8256,24.33 106.7426,24.33 C106.6056,24.33 106.4916,24.3 106.4006,24.25 C106.3096,24.19 106.2356,24.11 106.1796,24.02 C106.1236,23.93 106.0826,23.82 106.0586,23.71 C106.0346,23.59 106.0216,23.48 106.0216,23.36 L106.0216,22.3 L108.6106,22.3 Z M107.5766,22.87 L107.5766,23.28 C107.5766,23.33 107.5806,23.37 107.5906,23.41 C107.6006,23.46 107.6166,23.5 107.6386,23.53 C107.6606,23.56 107.6896,23.59 107.7256,23.61 C107.7626,23.63 107.8066,23.64 107.8576,23.64 C107.9116,23.64 107.9556,23.63 107.9916,23.61 C108.0266,23.59 108.0536,23.56 108.0736,23.52 C108.0926,23.48 108.1066,23.44 108.1156,23.39 C108.1236,23.35 108.1286,23.3 108.1286,23.26 L108.1286,22.87 L107.5766,22.87 Z M106.5046,22.87 L106.5046,23.38 C106.5046,23.43 106.5096,23.47 106.5196,23.52 C106.5296,23.56 106.5466,23.6 106.5706,23.64 C106.5946,23.68 106.6266,23.71 106.6656,23.73 C106.7046,23.75 106.7526,23.76 106.8086,23.76 C106.8696,23.76 106.9186,23.75 106.9566,23.72 C106.9946,23.69 107.0226,23.65 107.0426,23.6 C107.0616,23.56 107.0756,23.51 107.0826,23.45 C107.0896,23.4 107.0936,23.35 107.0936,23.3 L107.0936,22.87 L106.5046,22.87 Z" id="Fill-48"></path>
                <path d="M108.6106,25.94 L108.6106,26.41 L106.0216,27.54 L106.0216,26.9 L106.5706,26.67 L106.5706,25.67 L106.0216,25.45 L106.0216,24.82 L108.6106,25.94 Z M107.8576,26.16 L107.0536,25.85 L107.0536,26.48 L107.8576,26.16 Z" id="Fill-49"></path>
                <polygon id="Fill-50" points="106.5486 28.09 108.1066 29.4 108.1066 28.13 108.6106 28.13 108.6106 30.09 108.1066 30.09 106.5486 28.8 106.5486 30.13 106.0216 30.13 106.0216 28.09"></polygon>
                <path d="M108.6106,31.8 L108.6106,32.27 L106.0216,33.4 L106.0216,32.75 L106.5706,32.53 L106.5706,31.52 L106.0216,31.31 L106.0216,30.68 L108.6106,31.8 Z M107.8576,32.02 L107.0536,31.7 L107.0536,32.33 L107.8576,32.02 Z" id="Fill-51"></path>
                <path d="M108.6106,34.93 L108.6106,35.4 L106.0216,36.53 L106.0216,35.88 L106.5706,35.66 L106.5706,34.65 L106.0216,34.44 L106.0216,33.81 L108.6106,34.93 Z M107.8576,35.15 L107.0536,34.83 L107.0536,35.46 L107.8576,35.15 Z" id="Fill-52"></path>
                <path d="M108.6106,37.205 L108.6106,38.207 C108.6106,38.339 108.5986,38.464 108.5726,38.582 C108.5466,38.7 108.5046,38.804 108.4446,38.893 C108.3846,38.982 108.3046,39.052 108.2036,39.105 C108.1016,39.157 107.9756,39.183 107.8246,39.183 C107.6416,39.183 107.4866,39.136 107.3586,39.041 C107.2306,38.946 107.1496,38.807 107.1156,38.624 L106.0216,39.282 L106.0216,38.598 L107.0566,38.057 L107.0566,37.776 L106.0216,37.776 L106.0216,37.205 L108.6106,37.205 Z M107.5396,37.776 L107.5396,38.112 C107.5396,38.163 107.5416,38.217 107.5446,38.275 C107.5486,38.332 107.5596,38.384 107.5776,38.43 C107.5966,38.476 107.6246,38.515 107.6636,38.545 C107.7026,38.576 107.7576,38.591 107.8286,38.591 C107.8946,38.591 107.9466,38.578 107.9856,38.551 C108.0246,38.524 108.0546,38.49 108.0756,38.448 C108.0956,38.407 108.1096,38.359 108.1176,38.306 C108.1246,38.252 108.1286,38.2 108.1286,38.149 L108.1286,37.776 L107.5396,37.776 Z" id="Fill-53"></path>
                <path d="M111.5186,16.09 C112.5996,16.09 113.4766,16.97 113.4766,18.05 C113.4766,19.13 112.5996,20.01 111.5186,20.01 C110.4376,20.01 109.5596,19.13 109.5596,18.05 C109.5596,16.97 110.4376,16.09 111.5186,16.09 Z M111.5186,16.74 C112.2396,16.74 112.8246,17.33 112.8246,18.05 C112.8246,18.77 112.2396,19.35 111.5186,19.35 C110.7976,19.35 110.2126,18.77 110.2126,18.05 C110.2126,17.33 110.7976,16.74 111.5186,16.74 Z" id="Fill-54"></path>
                <path d="M78.0466,1.08002496e-12 L78.0466,35.09 L91.9006,28.16 L91.9006,49.887 L78.0466,42.952 L78.0466,78.046 L-2.84217094e-14,78.046 L-2.84217094e-14,1.08002496e-12 L78.0466,1.08002496e-12 Z M2.8864,75.159 L14.6273,75.159 C10.3106,73.377 6.3225,70.816 2.8864,67.662 L2.8864,75.159 Z M58.0226,65.42 C57.4696,66.026 56.8956,66.615 56.3026,67.184 C52.7034,70.636 48.4372,73.324 43.8353,75.159 L73.5036,75.159 L58.0226,65.42 Z M55.4929,14.19 C48.6837,7.09 39.1501,2.93 29.4169,2.89 C28.526,2.88 27.6362,2.91 26.748,2.97 C17.4697,3.62 8.9851,7.98 2.8864,14.48 L2.8864,63.668 C3.3657,64.185 3.8613,64.688 4.3727,65.175 C11.056,71.543 20.2119,75.188 29.4169,75.159 C39.2163,75.128 48.7959,70.853 55.5199,63.845 L16.0417,39.008 L55.4929,14.19 Z M59.8196,14.88 C62.6216,18.34 64.8346,22.27 66.2716,26.51 C70.5146,39.04 67.7576,53.099 59.9006,63.191 L75.1596,72.792 L75.1596,5.23 L59.8196,14.88 Z M57.4296,16.38 L37.808,28.72 C39.6382,35.49 39.5082,42.606 37.7061,49.228 L57.4566,61.654 C58.0706,60.897 58.6536,60.115 59.2026,59.308 C66.5036,48.576 67.3296,34.24 61.6316,22.87 C60.4586,20.53 59.0436,18.36 57.4296,16.38 Z M21.4619,39.008 L35.1994,47.651 C36.5688,41.972 36.5769,36 35.2192,30.35 L21.4619,39.008 Z M78.0466,38.32 L78.0466,39.725 L89.0146,45.215 L89.0146,32.83 L78.0466,38.32 Z M57.8996,12.67 L73.4586,2.89 L43.7048,2.89 C49.0851,5.09 53.9518,8.46 57.8996,12.67 Z M14.7394,2.89 L2.8864,2.89 L2.8864,10.34 C6.3636,7.17 10.3993,4.65 14.7394,2.89 Z" id="Fill-55"></path>
            </g>
        </g>
    </g>
</svg>