<?xml version="1.0" encoding="utf-8"?>
<svg width="64px" height="59px" viewBox="0 0 64 59" version="1.1" xmlns:xlink="http://www.w3.org/1999/xlink" xmlns="http://www.w3.org/2000/svg">
  <desc>Created with Lunacy</desc>
  <defs>
    <linearGradient x1="1" y1="0.5" x2="0" y2="0.5" id="gradient_1">
      <stop offset="0" stop-color="#AA84FF" />
      <stop offset="1" stop-color="#745BCB" />
    </linearGradient>
  </defs>
  <g id="编组备份-2" transform="translate(1 1)">
    <g id="编组" transform="translate(10.59736 36.32225)">
      <path d="M19.3354 9.57904C19.3354 7.03791 18.3168 4.60543 16.5043 2.80671C14.6912 1.008 12.2327 0 9.66893 0C9.66771 0 9.6671 0 9.66589 0C7.10269 0 4.6436 1.008 2.83109 2.80671C1.01797 4.60543 0 7.03791 0 9.57904L0 9.58508C0 12.1262 1.01797 14.5647 2.83109 16.3634C4.6436 18.1561 7.10269 19.1702 9.66589 19.1702C14.5007 19.1702 19.3354 19.1702 19.3354 19.1702C19.3354 19.1702 19.3354 14.3776 19.3354 9.57904Z" transform="translate(0.01887393 0.03017972)" id="路径" fill="#000000" fill-opacity="0.2" stroke="none" />
    </g>
    <g id="编组" transform="translate(0.08431645 0.01326805)">
      <path d="M22.1971 44.0121C34.4563 44.0121 44.3943 34.1596 44.3943 22.006C44.3943 9.85244 34.4563 0 22.1971 0C9.938 0 0 9.85244 0 22.006C0 34.1596 9.938 44.0121 22.1971 44.0121Z" transform="translate(0.8866008 0.7430815)" id="椭圆形" fill="#F78F74" stroke="none" />
    </g>
    <g id="编组" transform="translate(34.04955 15.47569)">
      <path d="M9.66772 19.169C15.0071 19.169 19.3354 14.8778 19.3354 9.58448C19.3354 4.29112 15.0071 0 9.66772 0C4.32839 0 0 4.29112 0 9.58448C0 14.8778 4.32839 19.169 9.66772 19.169Z" transform="translate(0.04143484 0.03660613)" id="椭圆形" fill="#000000" fill-opacity="0.2" stroke="none" />
    </g>
    <g id="编组" transform="translate(34.04955 37.12403)">
      <path d="M9.66772 19.169C15.0071 19.169 19.3354 14.8778 19.3354 9.58448C19.3354 4.29112 15.0071 0 9.66772 0C4.32839 0 0 4.29112 0 9.58448C0 14.8778 4.32839 19.169 9.66772 19.169Z" transform="translate(0.04143484 0.03660613)" id="椭圆形" fill="#886ADE" stroke="none" />
    </g>
    <g id="编组" transform="translate(21.91911 25.09718)">
      <path d="M0.740831 1.34367C1.14998 1.34367 1.48166 1.04288 1.48166 0.671833C1.48166 0.30079 1.14998 0 0.740831 0C0.331681 0 0 0.30079 0 0.671833C0 1.04288 0.331681 1.34367 0.740831 1.34367Z" transform="translate(0.03916843 0.008020744)" id="椭圆形" fill="#FA9989" stroke="none" />
    </g>
    <g id="编组" transform="translate(36.47564 14.6739)">
      <path d="M9.66772 19.169C15.0071 19.169 19.3354 14.8778 19.3354 9.58448C19.3354 4.29112 15.0071 0 9.66772 0C4.32839 0 0 4.29112 0 9.58448C0 14.8778 4.32839 19.169 9.66772 19.169Z" transform="translate(0.04143484 0.03660613)" id="椭圆形" fill="#AA84FF" stroke="none" />
    </g>
    <g id="编组" transform="translate(13.02345 36.32225)">
      <path d="M19.3354 9.57904C19.3354 7.03791 18.3168 4.60543 16.5043 2.80671C14.6912 1.008 12.2327 0 9.66893 0C9.66771 0 9.6671 0 9.66589 0C7.10269 0 4.6436 1.008 2.83109 2.80671C1.01797 4.60543 0 7.03791 0 9.57904C0 9.58508 0 9.58508 0 9.58508C0 12.1262 1.01797 14.5647 2.83109 16.3634C4.6436 18.1561 7.10269 19.1702 9.66589 19.1702C14.5007 19.1702 19.3354 19.1702 19.3354 19.1702C19.3354 19.1702 19.3354 14.3776 19.3354 9.57904Z" transform="translate(0.01887393 0.03017972)" id="路径" fill="#AA84FF" stroke="none" />
    </g>
    <g id="编组" transform="translate(43.7539 21.08822)">
      <path d="M3.172 6.28937C4.92384 6.28937 6.34399 4.88145 6.34399 3.14469C6.34399 1.40792 4.92384 0 3.172 0C1.42015 0 0 1.40792 0 3.14469C0 4.88145 1.42015 6.28937 3.172 6.28937Z" transform="translate(0.05217852 0.03754316)" id="椭圆形" fill="#FFFFFF" stroke="none" />
    </g>
    <g id="编组" transform="translate(40.63309 43.56168)">
      <path d="M3.172 6.28937C4.92384 6.28937 6.34399 4.88145 6.34399 3.14469C6.34399 1.40792 4.92384 0 3.172 0C1.42015 0 0 1.40792 0 3.14469C0 4.88145 1.42015 6.28937 3.172 6.28937Z" transform="translate(0.1454293 0.1690749)" id="椭圆形" fill="#FFFFFF" stroke="none" />
    </g>
    <g id="编组" transform="translate(21.41818 44.70588)">
      <path d="M1.69091 3.35294C2.62477 3.35294 3.38182 2.60236 3.38182 1.67647C3.38182 0.750582 2.62477 0 1.69091 0C0.757046 0 0 0.750582 0 1.67647C0 2.60236 0.757046 3.35294 1.69091 3.35294Z" transform="translate(0.1672677 0.3179459)" id="椭圆形" fill="#FFFFFF" stroke="none" />
    </g>
    <g id="编组" transform="translate(23.5365 46.74553)">
      <path d="M0 0.346458L8.80976 0.346458" transform="translate(0.006088365 0.07946307)" id="路径" fill="none" stroke="#FFFFFF" stroke-width="2" />
    </g>
    <g id="编组" transform="matrix(0.4067634 0.9135336 -0.9135336 0.4067634 57.69536 9.01457)">
      <g id="编组" transform="matrix(0.3623793 0.9320307 -0.9320307 0.3623793 9.013605 0.3458985)">
        <path d="M2.86112 2.61408C2.56153 2.83306 2.08218 2.83306 1.78258 2.61408L0.224695 1.13596C-0.0748984 0.862236 -0.0748984 0.424275 0.224695 0.205294C0.524289 -0.0684314 1.00364 -0.0684314 1.24331 0.205294L2.86112 1.68341C3.1008 1.90239 3.1008 2.34035 2.86112 2.61408Z" transform="translate(0.03136696 0.1126609)" id="路径" fill="#F78F74" stroke="none" />
      </g>
      <g id="编组" transform="matrix(0.3623793 0.9320307 -0.9320307 0.3623793 4.621551 0.08386695)">
        <path d="M3.71496 0.656942C3.71496 1.04016 3.41537 1.31388 2.99594 1.31388L0.719025 1.31388C0.359513 1.31388 0 1.04016 0 0.656942C0 0.273726 0.359513 0 0.719025 0L2.99594 0C3.41537 0 3.71496 0.273726 3.71496 0.656942Z" transform="translate(0.1496821 0.09699295)" id="路径" fill="#F78F74" stroke="none" />
      </g>
      <g id="编组" transform="matrix(0.3623793 0.9320307 -0.9320307 0.3623793 2.870856 2.526872)">
        <path d="M2.86112 0.164235C3.16071 0.437961 3.16071 0.875922 2.86112 1.0949L1.24331 2.57302C0.94372 2.84675 0.46437 2.84675 0.224695 2.57302C-0.0748984 2.2993 -0.0748984 1.86133 0.224695 1.64235L1.78258 0.164235C2.08218 -0.0547451 2.56153 -0.0547451 2.86112 0.164235Z" transform="translate(0.0327352 0.04422058)" id="路径" fill="#F78F74" stroke="none" />
      </g>
    </g>
    <g id="编组" transform="translate(12.21476 10.66495)">
      <path d="M9.97913 15.9466L9.97913 0L0 0L0 24.7803L9.97913 24.7803L9.97913 24.7381L21.753 24.7381L21.753 15.9466L9.97913 15.9466Z" transform="translate(0.02229432 0.01875518)" id="形状" fill="#000000" fill-opacity="0.2" fill-rule="evenodd" stroke="none" />
    </g>
    <g id="编组" transform="translate(14.64084 9.863155)">
      <path d="M0 0L9.66786 0L9.66786 14.5671L19.3287 14.5671L19.3287 23.2056L3.19241 23.2056L3.19241 23.0797L0 23.0797L0 0Z" transform="translate(0.03005064 0.01865779)" id="路径" fill="url(#gradient_1)" stroke="none" />
    </g>
  </g>
</svg>