<?xml version="1.0" encoding="utf-8"?>
<svg width="64px" height="60px" viewBox="0 0 64 60" version="1.1" xmlns:xlink="http://www.w3.org/1999/xlink" xmlns="http://www.w3.org/2000/svg">
  <desc>Created with Lunacy</desc>
  <defs>
    <linearGradient x1="-0.2125989" y1="0.481631458" x2="0.632081032" y2="0.481631458" id="gradient_1">
      <stop offset="0" stop-color="#D6ACFB" />
      <stop offset="1" stop-color="#745BCB" />
    </linearGradient>
    <linearGradient x1="0.167761892" y1="0.350953519" x2="1.00000489" y2="0.350953519" id="gradient_2">
      <stop offset="0" stop-color="#FF5858" />
      <stop offset="1" stop-color="#F69577" />
    </linearGradient>
  </defs>
  <g id="编组-6备份" transform="translate(1.527084 1.5271)">
    <path d="M-2.36455e-14 1.44015C-2.36455e-14 1.44015 0.687735 0.981467 1.40132 0.506393C2.38207 -0.14561 3.52561 -0.169325 4.5138 0.442922C4.69222 0.556317 4.87408 0.666442 5.05079 0.776586C6.03555 1.38885 7.17046 1.37494 8.15286 0.73922C8.24766 0.676964 8.34246 0.614708 8.43725 0.552452C9.5179 -0.145533 10.768 -0.159861 11.8488 0.517218C12.5676 0.970782 13.2401 1.39193 13.2401 1.39193" transform="matrix(-0.4999994 0.8660258 0.8660258 0.4999994 46.42403 4.650471)" id="路径" fill="none" stroke="#AA84FF" stroke-width="2" stroke-linecap="round" />
    <path d="M1.20503e-13 1.44015C1.20036e-13 1.44015 0.687735 0.981467 1.40132 0.506393C2.38207 -0.14561 3.52561 -0.169325 4.51381 0.442921C4.69222 0.556317 4.87409 0.666442 5.05079 0.776586C6.03555 1.38884 7.17046 1.37494 8.15286 0.739219C8.24766 0.676964 8.34246 0.614708 8.43726 0.552452" transform="matrix(-0.4999994 0.8660258 0.8660258 0.4999994 42.40832 0.1900573)" id="路径" fill="none" stroke="#F56D6A" stroke-width="2" stroke-linecap="round" />
    <path d="M14.0885 37.7184L0 37.7184L1.84722 0L15.9633 0L15.9633 35.8778C15.9633 36.8943 15.1362 37.7184 14.0885 37.7184Z" transform="translate(18.22407 13.31659)" id="路径" fill="#AA84FF" stroke="none" />
    <path d="M18.2241 37.7184L1.87479 37.7184C0.854684 37.7184 0 36.8943 0 35.8504L0 0L20.0713 0L20.0713 35.8778C20.0713 36.8943 19.2442 37.7184 18.2241 37.7184Z" transform="translate(0 13.31659)" id="路径" fill="url(#gradient_1)" stroke="none" />
    <path d="M5.04539 0L25.1443 0L20.0713 4.75258L0 4.75258L5.04539 0Z" transform="translate(0 8.564016)" id="路径" fill="#AA84FF" stroke="none" />
    <path d="M2.64676 0L22.1115 0L20.1264 6.09868L0 6.09868L1.57152 0.769203C1.73694 0.302187 2.1505 0 2.64676 0Z" transform="translate(5.045393 2.465332)" id="路径" fill="#745BCB" stroke="none" />
    <path d="M8.13328 0.809397L7.88515 0.836869C7.2786 0.232494 5.73465 -0.124636 3.97014 0.0401935C2.20564 0.177551 0.744402 0.781925 0.248134 1.49619L0 1.52366L0.110282 2.64999C0.192993 3.58402 2.06778 4.1884 4.32856 3.9961C6.58934 3.8038 8.32628 2.89724 8.24356 1.9632L8.24356 1.93573L8.13328 0.809397Z" transform="translate(7.830009 8.606237)" id="路径" fill="#D1D1D1" stroke="none" />
    <path d="M4.08133 3.40663C6.33473 3.4082 8.16093 2.64687 8.16027 1.70615C8.15961 0.765438 6.33234 0.00156865 4.07894 2.41227e-06C1.82555 -0.00156383 -0.000659106 0.759766 1.78451e-07 1.70048C0.000659463 2.6412 1.82793 3.40506 4.08133 3.40663Z" transform="matrix(0.9965128 -0.08344027 0.08344027 0.9965128 7.702704 8.41467)" id="椭圆形" fill="#FFFFFF" stroke="none" />
    <path d="M7.47159 0L0 0.631846L0.220564 3.379C0.303275 4.23062 2.01264 4.80752 4.08043 4.61522C6.14821 4.45039 7.7473 3.59877 7.69216 2.74716L7.47159 0Z" transform="translate(7.91272 6.641007)" id="路径" fill="#D1D1D1" stroke="none" />
    <path d="M0.882255 4.28556L0.496268 0L0 0.0549431L0.385986 4.31303C0.468698 4.31303 0.523839 4.31303 0.60655 4.28556C0.716832 4.31303 0.799543 4.28556 0.882255 4.28556Z" transform="translate(11.3866 6.943194)" id="路径" fill="#C2C2C2" stroke="none" />
    <path d="M0.496268 0L0 0.0549431L0.358416 4.25809C0.523839 4.25809 0.689261 4.28556 0.854684 4.28556L0.496268 0Z" transform="translate(10.42163 6.998137)" id="路径" fill="#C2C2C2" stroke="none" />
    <path d="M0.496268 0L0 0.0549431L0.358416 4.03832C0.523839 4.06579 0.689261 4.09326 0.854684 4.12073L0.496268 0Z" transform="translate(9.401525 7.080552)" id="路径" fill="#C2C2C2" stroke="none" />
    <path d="M0.827113 3.81855L0.496268 0L0 0.0549431L0.303275 3.59877C0.468697 3.68119 0.63412 3.7636 0.827113 3.81855Z" transform="translate(8.408988 7.162967)" id="路径" fill="#C2C2C2" stroke="none" />
    <path d="M0.496268 0L0 0.0549431L0.385986 4.31303C0.551409 4.28556 0.716832 4.25809 0.882255 4.20315L0.496268 0Z" transform="translate(12.4067 6.833308)" id="路径" fill="#C2C2C2" stroke="none" />
    <path d="M0.496268 0L0 0.0549431L0.330846 3.84602C0.523839 3.73613 0.661691 3.62624 0.799543 3.51636L0.496268 0Z" transform="translate(14.39178 6.668479)" id="路径" fill="#C2C2C2" stroke="none" />
    <path d="M0.496268 0L0 0.0549431L0.358416 4.17568C0.523839 4.12073 0.689261 4.06579 0.854684 4.01085L0.496268 0Z" transform="translate(13.39924 6.750894)" id="路径" fill="#C2C2C2" stroke="none" />
    <path d="M3.75041 3.1319C5.8211 3.13334 7.49924 2.43341 7.49863 1.56856C7.49802 0.703708 5.81891 0.00144142 3.74822 2.21551e-06C1.67753 -0.00143699 -0.000605936 0.698496 1.64129e-07 1.56335C0.000606264 2.4282 1.67972 3.13046 3.75041 3.1319Z" transform="matrix(0.9965129 -0.08343799 0.08343799 0.9965129 7.794902 5.694405)" id="椭圆形" fill="#FFFFFF" stroke="none" />
    <path d="M9.07068 6.08495L7.36131 0.206037C7.2786 -0.0686789 6.86504 -0.0686789 6.78233 0.206037L5.07296 6.08495L0 10.8375L14.1161 10.8375L9.07068 6.08495Z" transform="translate(20.07129 2.479068)" id="路径" fill="#674FBD" stroke="none" />
    <path d="M7.69216 4.79379L6.5342 0.206037C6.45149 -0.0686789 6.0655 -0.0686789 5.98279 0.206037L4.82483 4.79379L0 9.40901L12.5721 9.40901L7.69216 4.79379Z" transform="translate(20.87083 3.907588)" id="路径" fill="#7556B8" stroke="none" />
    <path d="M7.71973 9.58757L0 4.97235L1.2131 0.164829C1.26824 -0.0549431 1.59909 -0.0549431 1.65423 0.164829L2.86733 4.97235L7.71973 9.58757Z" transform="translate(25.69566 3.729023)" id="路径" fill="#745BCB" stroke="none" />
    <path d="M5.18325 37.7184C6.20335 37.7184 7.05804 36.8943 7.05804 35.8504L7.05804 0L0 0L0 37.7184L5.18325 37.7184Z" transform="translate(27.12933 13.31659)" id="路径" fill="#000000" fill-opacity="0.101960786" stroke="none" />
    <path d="M0.937397 0.467016L0.937397 12.0325C0.937397 12.2798 0.716833 12.4996 0.468699 12.4996C0.220564 12.4996 0 12.2798 0 12.0325L0 0.467016C0 0.219772 0.220564 0 0.468699 0C0.716833 0 0.937397 0.219772 0.937397 0.467016Z" transform="translate(32.7537 36.28281)" id="路径" fill="#FFFFFF" fill-opacity="0.101960786" stroke="none" />
    <path d="M0.937397 0.467016L0.937397 4.64269C0.937397 4.88993 0.716833 5.10971 0.468699 5.10971C0.220564 5.10971 0 4.88993 0 4.64269L0 0.467016C0 0.219772 0.220564 0 0.468699 0C0.716833 0 0.937397 0.219772 0.937397 0.467016Z" transform="translate(32.7537 30.2116)" id="路径" fill="#FFFFFF" fill-opacity="0.101960786" stroke="none" />
    <path d="M12.9581 2.70869C12.9581 1.21424 11.734 0 10.2259 0L2.73223 0C1.22413 0 0 1.21424 0 2.70869L0 16.5214C0 18.0158 1.22413 19.2301 2.73223 19.2301L10.2259 19.2301C11.734 19.2301 12.9581 18.0158 12.9581 16.5214L12.9581 2.70869Z" transform="translate(3.557615 19.22525)" id="路径" fill="#AA84FF" stroke="#FFFFFF" stroke-width="2.31868529" />
    <path d="M9.87022 34.8614L25.3648 34.8614C27.019 34.8614 28.1219 33.5428 27.791 31.8945L21.5325 0L0 0L6.28606 31.8945C6.58934 33.5428 8.21599 34.8614 9.87022 34.8614Z" transform="translate(32.04028 20.15714)" id="路径" fill="#E65150" stroke="none" />
    <path d="M17.9795 34.8614L2.48489 34.8614C0.830667 34.8614 -0.272151 33.5428 0.0586948 31.8945L6.34476 0L27.8773 0L21.5912 31.8945C21.2604 33.5428 19.6613 34.8614 17.9795 34.8614Z" transform="translate(25.69552 20.15714)" id="路径" fill="url(#gradient_2)" stroke="none" />
    <path d="M8.16085 0.137358L0 0.137358L8.16085 0.137358Z" transform="translate(43.34417 20.01979)" id="路径" fill="#E55753" stroke="none" />
    <path d="M14.0609 26.6749L8.82255 0L3.58416 26.6749C3.25331 28.2957 1.65423 29.6143 0 29.6418L11.6347 29.6418C13.289 29.6418 14.3918 28.3232 14.0609 26.6749Z" transform="translate(43.73015 25.37674)" id="路径" fill="#E55753" stroke="none" />
    <path d="M8.16085 0.247463L0 0.247463L8.16085 0.247463Z" transform="translate(43.34417 20.05311)" id="路径" fill="#DCA700" stroke="none" />
    <path d="M8.16085 0.247463L0 0.247463L8.16085 0.247463Z" transform="translate(39.59459 20.05311)" id="路径" fill="#DCA700" stroke="none" />
    <path d="M14.0609 26.6749L8.82255 0L10.3113 26.6749C10.6422 28.3232 9.53938 29.6418 7.88515 29.6418L0.0275705 29.6418L0 29.6418L11.6347 29.6418C13.289 29.6418 14.3918 28.3232 14.0609 26.6749Z" transform="translate(43.73015 25.37674)" id="路径" fill="#000000" fill-opacity="0.101960786" stroke="none" />
    <path d="M19.5199 0L2.04021 0C0.909825 0 0 0.906561 0 2.03289L0 6.3734L21.5325 6.3734L21.5325 2.03289C21.5601 0.906561 20.6503 0 19.5199 0Z" transform="translate(32.01271 13.78374)" id="路径" fill="#E6E6E6" stroke="none" />
    <path d="M0.882254 1.75818C1.36951 1.75818 1.76451 1.3646 1.76451 0.879089C1.76451 0.393582 1.36951 0 0.882254 0C0.394998 0 0 0.393582 0 0.879089C0 1.3646 0.394998 1.75818 0.882254 1.75818Z" transform="translate(46.40449 22.49223)" id="椭圆形" fill="#424242" stroke="none" />
    <path d="M11.5364 0.988976L0.370398 0.988976C0.0946931 0.988976 -0.0431591 0.769203 0.0119818 0.494488C0.0946931 0.219772 0.342827 0 0.618532 0L11.7846 0C12.0603 0 12.1981 0.219772 12.143 0.494488C12.0603 0.769203 11.7846 0.988976 11.5364 0.988976Z" transform="translate(31.75259 45.84304)" id="路径" fill="#FFFFFF" stroke="none" />
    <path d="M14.1832 0.988976L0.370398 0.988976C0.0946932 0.988976 -0.0431591 0.769203 0.0119818 0.494488C0.0946932 0.219772 0.342827 0 0.618532 0L14.4313 0C14.707 0 14.8449 0.219772 14.7897 0.494488C14.7346 0.769203 14.4589 0.988976 14.1832 0.988976Z" transform="translate(29.76752 48.26054)" id="路径" fill="#FFFFFF" stroke="none" />
    <path d="M14.1832 0.988976L0.370398 0.988976C0.0946932 0.988976 -0.0431591 0.769203 0.0119818 0.494488C0.0946932 0.219772 0.342827 0 0.618532 0L14.4313 0C14.707 0 14.8449 0.219772 14.7897 0.494488C14.7346 0.769203 14.4589 0.988976 14.1832 0.988976Z" transform="translate(29.1334 50.67804)" id="路径" fill="#FFFFFF" stroke="none" />
    <path d="M12.131 0L4.13557 0C3.74958 0 3.41874 0.247244 3.33602 0.604374L0.303275 11.2084L0 12.2798C0.137852 12.6094 0.441127 12.8292 0.827114 12.8292C1.02011 12.8292 1.18553 12.7743 1.32338 12.6644L4.3837 1.95048C4.49398 1.59335 4.82483 1.34611 5.18325 1.34611L12.1586 1.34611C12.5721 1.34611 12.8754 0.988976 12.8478 0.576903C12.8203 0.274716 12.4894 0 12.131 0Z" transform="translate(46.45963 11.39372)" id="路径" fill="#FFFFFF" stroke="none" />
    <path d="M12.131 0L4.13557 0C3.74958 0 3.41874 0.247244 3.33602 0.604374L0.303275 11.2084L0 12.2798C0.137852 12.6094 0.441127 12.8292 0.827114 12.8292C1.02011 12.8292 1.18553 12.7743 1.32338 12.6644L4.3837 1.95048C4.49398 1.59335 4.82483 1.34611 5.18325 1.34611L12.1586 1.34611C12.5721 1.34611 12.8754 0.988976 12.8478 0.576903C12.8203 0.274716 12.4894 0 12.131 0Z" transform="translate(46.45963 11.39372)" id="路径" fill="#000000" fill-opacity="0.101960786" stroke="none" />
    <path d="M11.1936 0.824146L0.413557 0.824146C0.192993 0.824146 0 0.631845 0 0.412073C0 0.192301 0.192993 0 0.413557 0L11.1936 0C11.4142 0 11.6072 0.192301 11.6072 0.412073C11.6072 0.631845 11.4142 0.824146 11.1936 0.824146Z" transform="translate(34.24591 14.71778)" id="路径" fill="#B5B4B4" fill-opacity="0.2" stroke="none" />
    <path d="M4.32856 0.824146L0.413557 0.824146C0.192993 0.824146 0 0.631845 0 0.412073C0 0.192301 0.192993 0 0.413557 0L4.32856 0C4.54913 0 4.74212 0.192301 4.74212 0.412073C4.74212 0.631845 4.54913 0.824146 4.32856 0.824146Z" transform="translate(46.7629 14.71778)" id="路径" fill="#B5B4B4" fill-opacity="0.2" stroke="none" />
    <path d="M1.69248 8.96637L0.0106871 0.505137C-0.0444538 0.285364 0.120969 0.0655919 0.341532 0.0106488C0.562096 -0.0442943 0.78266 0.120535 0.837801 0.340307L2.5196 8.80154C2.57474 9.02131 2.40932 9.24109 2.18875 9.29603C1.96819 9.35097 1.74763 9.21362 1.69248 8.96637Z" transform="translate(54.94064 33.82733)" id="路径" fill="#FFFFFF" fill-opacity="0.2" stroke="none" />
    <path d="M0.617236 3.47206L0.0106871 0.505137C-0.0444537 0.285364 0.120969 0.0655919 0.341532 0.0106488C0.562096 -0.0442943 0.782659 0.120535 0.8378 0.340307L1.44435 3.30724C1.49949 3.52701 1.33407 3.74678 1.1135 3.80172C0.892941 3.82919 0.672377 3.69184 0.617236 3.47206Z" transform="translate(56.92571 43.85444)" id="路径" fill="#FFFFFF" fill-opacity="0.2" stroke="none" />
    <path d="M1.59909 3.84602L0 3.40647L0.799543 0.604374C0.909825 0.247244 1.24067 0 1.59909 0L4.65941 0L4.65941 1.64829L2.83976 1.64829C2.45377 1.64829 2.12293 1.89554 2.04021 2.25267L1.59909 3.84602Z" transform="translate(48.88583 11.25636)" id="路径" fill="#D1D1D1" stroke="none" />
    <path d="M6.7602 13.6242C10.4981 13.6199 13.5317 10.5666 13.5361 6.80438C13.5404 3.04216 10.5137 -0.00425887 6.77586 4.46932e-06C3.03798 0.00426781 0.00433053 3.0576 4.63139e-06 6.81982C-0.00432126 10.582 3.02232 13.6284 6.7602 13.6242Z" transform="matrix(0.9904675 0.1377461 -0.1377461 0.9904675 34.57185 26.80684)" id="椭圆形" fill="#FFFFFF" stroke="#F56D6A" stroke-width="3.05418134" />
    <path d="M6.34476 2.03289L6.34476 6.3734L0.0586948 38.2679C-0.272151 39.9162 0.830667 41.2348 2.48489 41.2348L8.96395 41.2348L17.0972 6.3734L17.0972 0L8.3574 0C7.25458 0 6.34476 0.906561 6.34476 2.03289Z" transform="translate(25.69552 13.78374)" id="路径" fill="#000000" fill-opacity="0.101960786" stroke="none" />
    <path d="M0.496268 0.988976L4.96268 0.988976C5.23839 0.988976 5.45895 0.769203 5.45895 0.494488C5.45895 0.219772 5.23839 0 4.96268 0L0.496268 0C0.220564 0 0 0.219772 0 0.494488C0 0.769203 0.220564 0.988976 0.496268 0.988976ZM7.44402 3.13176L0.496268 3.13176C0.220564 3.13176 0 2.91198 0 2.63727C0 2.36255 0.220564 2.14278 0.496268 2.14278L7.44402 2.14278C7.71973 2.14278 7.94029 2.36255 7.94029 2.63727C7.94029 2.91198 7.71973 3.13176 7.44402 3.13176ZM0.496268 5.27454L7.44402 5.27454C7.71973 5.27454 7.94029 5.05477 7.94029 4.78005C7.94029 4.50533 7.71973 4.28556 7.44402 4.28556L0.496268 4.28556C0.220564 4.28556 0 4.50533 0 4.78005C0 5.05477 0.220564 5.27454 0.496268 5.27454Z" transform="translate(3.310441 43.39961)" id="形状" fill="#FFFFFF" fill-rule="evenodd" stroke="none" />
  </g>
</svg>