<?xml version="1.0" encoding="utf-8"?>
<svg width="69px" height="52px" viewBox="0 0 69 52" version="1.1" xmlns:xlink="http://www.w3.org/1999/xlink" xmlns="http://www.w3.org/2000/svg">
  <desc>Created with Lunacy</desc>
  <defs>
    <linearGradient x1="0.05898008" y1="0.9346578" x2="0.844302237" y2="0.131333187" id="gradient_1">
      <stop offset="0" stop-color="#FFFFFF" />
      <stop offset="1" stop-color="#D0C6F1" />
    </linearGradient>
    <path d="M14.4529 0L20.4336 5.56166C20.4336 5.56166 5.28772 23.0845 2.42945 24.3042C-0.428792 25.524 -0.587682 25.3502 1.03116 21.2522C2.65003 17.1543 14.4529 0 14.4529 0Z" transform="translate(0.004496024 0.008964218)" id="path_1" />
    <clipPath id="mask_1">
      <use xlink:href="#path_1" />
    </clipPath>
  </defs>
  <g id="编组-3" transform="translate(0.5 0.5)">
    <path d="M59.8749 2.20904C59.8749 1.62316 59.6422 1.0613 59.2279 0.647024C58.8136 0.23275 58.2517 0 57.6659 0C48.2614 0 11.6138 0 2.20904 0C1.62316 0 1.0613 0.23275 0.647025 0.647024C0.23275 1.0613 0 1.62316 0 2.20904C0 9.14158 0 30.4156 0 37.3481C0 37.934 0.23275 38.4959 0.647025 38.9102C1.0613 39.3247 1.62316 39.5575 2.20904 39.5575C11.6138 39.5575 48.2614 39.5575 57.6659 39.5575C58.2517 39.5575 58.8136 39.3247 59.2279 38.9102C59.6422 38.4959 59.8749 37.934 59.8749 37.3481C59.8749 30.4156 59.8749 9.14158 59.8749 2.20904Z" transform="translate(8.104966 0.01120527)" id="Fill-5" fill="#6F56C8" stroke="none" />
    <path d="M59.8748 3.09298C59.8748 2.27243 59.5492 1.48582 58.9691 0.905706C58.389 0.325913 57.6024 0 56.7822 0C46.4794 0 13.3957 0 3.09291 0C2.27269 0 1.48608 0.325913 0.905962 0.905706C0.325849 1.48582 0 2.27243 0 3.09298C0 10.4789 0 29.0783 0 36.4645C0 37.2847 0.325849 38.0714 0.905962 38.6515C1.48608 39.2316 2.27269 39.5575 3.09291 39.5575C13.3957 39.5575 46.4794 39.5575 56.7822 39.5575C57.6024 39.5575 58.389 39.2316 58.9691 38.6515C59.5492 38.0714 59.8748 37.2847 59.8748 36.4645C59.8748 29.0783 59.8748 10.4789 59.8748 3.09298Z" transform="translate(5.275218 2.137006)" id="Fill-6" fill="#9E7BF4" stroke="none" />
    <path d="M0.989586 2.80484L23.3771 2.75105C23.9617 2.69695 24.3667 2.2116 24.3667 1.56426L24.3667 1.1868C24.3667 0.539454 23.9169 0 23.3771 0L0.989586 0.0541055C0.449812 0.0541055 0 0.593559 0 1.24058L0 1.61836C0 2.26539 0.449812 2.80484 0.989586 2.80484ZM23.3771 7.68554L0.989586 7.73932C0.449812 7.73932 0 7.19987 0 6.55284L0 6.17507C0 5.52804 0.449812 4.98859 0.989586 4.98859L23.3771 4.93448C23.9169 4.93448 24.3667 5.47394 24.3667 6.12128L24.3667 6.49874C24.3667 7.14608 23.9617 7.63143 23.3771 7.68554ZM1.03441 12.4619L8.00601 12.4619C8.54578 12.4619 8.99559 11.9224 8.99559 11.2751L8.99559 10.8976C8.99559 10.2503 8.54578 9.71081 8.00601 9.71081L1.03441 9.71081C0.494633 9.71081 0.0448211 10.2503 0.0448211 10.8976L0.0448211 11.2751C0.0448211 11.9224 0.494633 12.4619 1.03441 12.4619Z" transform="translate(35.21276 25.37834)" id="Fill-7" fill="#FFFFFF" fill-rule="evenodd" stroke="none" />
    <path d="M0.573518 0.456638C1.29322 -0.19807 2.41182 -0.142044 3.07069 0.581497C3.72924 1.30536 3.67994 2.42461 2.96024 3.07931C2.24086 3.73402 1.12226 3.678 0.463386 2.95413C-0.195164 2.23027 -0.145861 1.11135 0.573518 0.456638Z" transform="translate(11.53461 47.37996)" id="Fill-8" fill="#FE5E5B" stroke="none" />
    <path d="M1.19062 2.62492C0.506134 2.15814 0.319166 1.23867 0.781464 0.556107C0.975155 0.292943 1.21015 0.122623 1.48836 5.35907e-06C1.01069 -0.00127524 0.568564 0.226992 0.254176 0.643508C-0.208122 1.32575 -0.0211538 2.24554 0.663648 2.712C1.08369 2.98349 1.60489 3.03247 2.02141 2.87112C1.74896 2.85767 1.43329 2.7962 1.19062 2.62492Z" transform="translate(11.92471 47.65154)" id="Fill-9" fill="#FCBB85" fill-opacity="0.5019608" stroke="none" />
    <path d="M0 0L1.11214 0.307985L2.22428 0.61629L1.39416 1.42787L0.564041 2.23977L0.282021 1.11989L0 0Z" transform="translate(0 34.1716)" id="Stroke-12" fill="none" stroke="#0FB795" stroke-width="1" stroke-linecap="round" stroke-linejoin="round" />
    <path d="M6.04156 0L6.12769 3.46147L6.21381 6.92262L3.10674 5.34523L0 3.76785L6.04156 0Z" transform="translate(46.46667 13.6)" id="Fill-13" fill="#FD685A" stroke="none" />
    <path d="M2.93482 0L0 5.34523L3.10706 6.92262L2.93482 0" transform="translate(49.57341 13.6)" id="Fill-14" fill="#FFFFFF" fill-opacity="0.396078438" stroke="none" />
    <path d="M7.34041 0L7.4451 4.2055L7.54947 8.411L3.7749 6.49458L0 4.57784L7.34041 0Z" transform="translate(14.48749 37.2252)" id="Fill-15" fill="#FD685A" stroke="none" />
    <path d="M3.56552 0L0 6.49458L3.77458 8.411L3.56552 0" transform="translate(18.26239 37.2252)" id="Fill-16" fill="#FFFFFF" fill-opacity="0.396078438" stroke="none" />
    <path d="M2.50114 4.52202C1.25693 4.64603 0.141655 3.73638 0.0123068 2.49191C-0.117042 1.24705 0.787987 0.135389 2.0322 0.0113824C3.27641 -0.113024 4.39168 0.796624 4.52103 2.04149C4.65037 3.28636 3.74535 4.39761 2.50114 4.52202Z" transform="translate(51.7239 5.827557)" id="Fill-17" fill="#F99D1B" stroke="none" />
    <path d="M2.50114 4.52202C1.25693 4.64603 0.141655 3.73638 0.0123068 2.49191C-0.117042 1.24705 0.787987 0.135389 2.0322 0.0113824C3.27641 -0.113024 4.39168 0.796624 4.52103 2.04149C4.65037 3.28635 3.74535 4.39761 2.50114 4.52202Z" transform="translate(38.53333 14.73333)" id="Fill-17备份" fill="#0FB795" stroke="none" />
    <path d="M1.72603 1.07808C1.98948 2.29536 1.6098 3.61729 0.86363 4.04122C0.56369 4.19113 0.284912 4.18578 0 4.08113C0.368637 4.52502 0.840628 4.65011 1.3209 4.42086C2.06707 3.99693 2.44644 2.675 2.1833 1.45723C2.01309 0.728617 1.63801 0.184953 1.22429 0C1.42395 0.219997 1.60244 0.593796 1.72603 1.07808Z" transform="translate(52.85723 5.827557)" id="Fill-18" fill="#FFFFFF" fill-opacity="0.266666681" stroke="none" />
    <path d="M0 10.3445C0 10.3445 0.451733 3.3947 6.79808 0.924739C13.1444 -1.54522 19.8093 1.71455 19.8093 1.71455C19.8093 1.71455 15.4229 3.40303 14.4228 4.56517C13.8046 5.28359 13.6519 5.9479 13.5517 6.85585C13.4697 7.60084 13.5475 8.35864 13.5366 9.22144C13.5062 11.6376 13.1508 13.2938 11.7143 14.4889C10.2781 15.6837 7.2671 16.6723 7.2671 16.6723L0 10.3445Z" transform="translate(19.85097 2.136862)" id="Fill-23" fill="#373736" stroke="none" />
    <path d="M3.58569 0L10.6533 6.05277L6.17891 11.0138L0 5.33243L3.58569 0Z" transform="translate(15.40536 13.94064)" id="Fill-24" fill="#E5E5E5" stroke="none" />
    <g id="编组" transform="translate(0.07334652 20.66156)">
      <path d="M14.4529 0L20.4336 5.56166C20.4336 5.56166 5.28772 23.0845 2.42945 24.3042C-0.428792 25.524 -0.587682 25.3502 1.03116 21.2522C2.65003 17.1543 14.4529 0 14.4529 0Z" transform="translate(0.004496024 0.008964218)" id="Clip-26" fill="none" stroke="none" />
      <g clip-path="url(#mask_1)">
        <path d="M14.4529 0L20.4336 5.56166C20.4336 5.56166 5.28772 23.0845 2.42945 24.3042C-0.428792 25.524 -0.587682 25.3502 1.03116 21.2522C2.65003 17.1543 14.4529 0 14.4529 0Z" transform="translate(0.004496024 0.008964218)" id="Fill-25" fill="url(#gradient_1)" stroke="none" />
      </g>
    </g>
    <path d="M3.1915 0C3.1915 0 0.959407 3.45122 0.11581 4.75552C-0.0692373 5.04173 -0.0292185 5.41855 0.212175 5.65962C0.438522 5.88565 0.673192 6.12 0.673192 6.12L4.45961 1.1804L3.1915 0Z" transform="translate(19.75405 17.51512)" id="Fill-27" fill="#FFFFFF" stroke="none" />
    <path d="M8.36938 0C8.26181 0.103089 8.29735 0.355047 8.3332 0.607006C8.26085 0.962053 8.11678 1.67247 7.82929 2.23433C7.14608 3.46147 5.56646 4.40431 4.30923 5.89622C2.90825 7.23925 1.65102 8.73115 0.537853 9.51232L0.429962 9.61573L0 9.17008L0.107571 9.06667C1.07731 8.13695 1.68911 6.4059 3.19766 4.95945C4.56279 3.36446 6.42927 2.71872 7.29111 1.89209C7.72235 1.47878 8.15328 1.06546 8.22531 0.710414C8.15392 0.206497 8.26181 0.103089 8.36938 0Z" transform="translate(24.6881 6.658494)" id="Fill-28" fill="#565655" stroke="none" />
    <path d="M4.16804 1.38177C4.88582 1.26556 5.46049 1.00079 5.92695 0.839435C6.39373 0.678079 6.71676 0.367853 7.07597 0.309906C7.29143 0.103409 7.399 0 7.399 0C7.399 0 7.29143 0.103409 7.21908 0.458456C7.14704 0.813823 6.82401 1.12373 6.39277 1.53704C5.63849 2.26026 3.98748 2.69919 3.16117 3.77778C2.22697 4.95945 1.68751 6.33514 0.825669 7.16177C0.609887 7.36827 0.394426 7.57508 0.286855 7.67849L0 7.38139C0.107891 7.27799 0.179925 6.92262 0.287495 6.81953C0.754915 5.79889 0.899944 4.22951 2.0496 2.84102C2.76834 1.86584 3.45026 1.49798 4.16804 1.38177Z" transform="translate(23.28968 7.213634)" id="Fill-29" fill="#565655" stroke="none" />
    <path d="M3.3062 2.85414C3.62923 2.54392 4.20358 2.27947 4.56279 2.22121C5.02925 2.05985 5.49603 1.89849 5.85492 1.84023C6.68026 1.62092 7.39804 1.50471 7.97271 1.23994C8.54706 0.975179 8.8701 0.665273 9.08556 0.458456C9.30134 0.251959 9.40891 0.14855 9.26548 0C9.15791 0.103409 9.30038 1.11092 8.43853 1.93755C8.00729 2.35087 7.32537 2.71872 6.53524 3.1903C6.17635 3.24825 5.85332 3.55815 5.38654 3.71983C4.92008 3.88119 4.70429 4.08768 4.38126 4.39759C3.05264 5.38589 1.90298 6.77407 1.04081 7.6007L0.286855 8.32392L0 8.02682C0.215461 7.82032 0.287495 7.46495 0.610848 7.15505C1.00687 5.63081 1.90522 4.19718 3.3062 2.85414Z" transform="translate(21.53333 4.533333)" id="Fill-30" fill="#565655" stroke="none" />
  </g>
</svg>